# xmcd CD database file
#
# Track frame offsets:
#	150
#	19505
#	39067
#	58377
#
# Disc length: 1036 seconds
#
# Revision: 0
# Processed by: cddbd v1.5PL3 Copyright (c) Steve Scherf et al.
# Submitted via: CDex 1.51
#
DISCID=27040a04
DTITLE=奥田美和子 - しずく
DYEAR=2000
DGENRE=JPop
TTITLE0=しずく
TTITLE1=さよならエゴイスト
TTITLE2=しずく (S.G.L.mix)
TTITLE3=しずく (instrumental)
EXTD=YEAR: 2000
EXTT0=
EXTT1=
EXTT2=
EXTT3=
PLAYORDER=
